<svg xmlns="http://www.w3.org/2000/svg" viewBox="0 0 500 500"><g id="freepik--background-complete--inject-209"><rect x="416.78" y="398.49" width="33.12" height="0.25" style="fill:#ebebeb"></rect><rect x="322.53" y="401.21" width="8.69" height="0.25" style="fill:#ebebeb"></rect><rect x="396.59" y="389.21" width="19.19" height="0.25" style="fill:#ebebeb"></rect><rect x="52.46" y="390.89" width="43.19" height="0.25" style="fill:#ebebeb"></rect><rect x="104.56" y="390.89" width="6.33" height="0.25" style="fill:#ebebeb"></rect><rect x="131.47" y="395.11" width="93.68" height="0.25" style="fill:#ebebeb"></rect><path d="M237,337.8H43.92a5.71,5.71,0,0,1-5.71-5.71V60.66A5.71,5.71,0,0,1,43.92,55H237a5.71,5.71,0,0,1,5.71,5.71V332.09A5.71,5.71,0,0,1,237,337.8ZM43.92,55.2a5.47,5.47,0,0,0-5.46,5.46V332.09a5.47,5.47,0,0,0,5.46,5.46H237a5.47,5.47,0,0,0,5.46-5.46V60.66A5.47,5.47,0,0,0,237,55.2Z" style="fill:#ebebeb"></path><path d="M453.31,337.8H260.21a5.72,5.72,0,0,1-5.71-5.71V60.66A5.72,5.72,0,0,1,260.21,55h193.1A5.71,5.71,0,0,1,459,60.66V332.09A5.71,5.71,0,0,1,453.31,337.8ZM260.21,55.2a5.47,5.47,0,0,0-5.46,5.46V332.09a5.47,5.47,0,0,0,5.46,5.46h193.1a5.47,5.47,0,0,0,5.46-5.46V60.66a5.47,5.47,0,0,0-5.46-5.46Z" style="fill:#ebebeb"></path><rect y="382.4" width="500" height="0.25" style="fill:#ebebeb"></rect><path d="M401.08,251.92c1.58-3.93,5.18-6.21,8.45-5.34s6,4.81,6.3,9.25a5.86,5.86,0,0,1,8-.27c2.39,2,3.73,6.09,3.23,9.83,2.61-2.67,6.89-1.57,8.57,2.2s.38,9.34-2.61,11.15c2,.18,3.78,2.76,3.73,5.49s-1.9,5.18-3.95,5.22c2.07.06,4,2.36,4.22,5.1s-1.18,5.59-3.18,6.31c2.1,1.18,2.63,5.54.92,7.55s-4.87.73-5.48-2.2a1,1,0,0,1-1.8.36,1.88,1.88,0,0,1,.35-2.39c-1,1.68-3.36.9-3.62-1.18.71,4.81-3.83,9.34-7.07,7.06a4.38,4.38,0,0,1-2.09,5.44c-1.71.62-3.51-.26-5.12-1.26s-3.24-2.17-5-2.14c-1.55,0-3,1-4.48,1.58-4.72,1.91-10.17.09-13.66-4.57-2.46,4.17-8.27,3.05-9.74-1.88-.38,2.37-2,4.25-3.83,4.39s-3.6-1.5-4.17-3.79l-.12,3.16c-3.4,1-6.75-4.54-5.3-8.77-2.42.06-4.72-2.6-5-5.82s1.4-6.57,3.75-7.34c-4-1.42-7.05-6.67-7.09-12.21s2.92-10.87,6.9-12.4a4.05,4.05,0,0,1,4.66.81c1.25,1.4,1.42,4.47,0,5.59-1.21-5,.58-10.91,4-13.38s8.13-1.21,10.57,2.86a8.24,8.24,0,0,1-.06-7.4c1.16-2.14,3.41-3.09,5.28-2.24.46-3.41,3.15-6,5.71-5.48s4.58,4,4.3,7.44c.29-2.87,3.83-3.72,4.85-1.15C402.94,251,401.08,251.92,401.08,251.92Z" style="fill:#ebebeb"></path><path d="M400.13,284a4,4,0,0,1,3.62-1.1A3.81,3.81,0,0,1,406.4,286c.25,1.58-.53,3.4-1.77,3.77-1.51.47-3-1.11-4.56-.83a11,11,0,0,0-1.59.61c-2.21.74-4.4-1.08-6.24-2.81a7.74,7.74,0,0,1-1.73-2.1,3.55,3.55,0,0,1-.19-2.9,2.68,2.68,0,0,1,3-1.24,10.86,10.86,0,0,1,6.15,3.25l-.18-1.33Z" style="fill:#fafafa"></path><path d="M368,281.55a5.52,5.52,0,0,1,1.93-1.28,1.72,1.72,0,0,1,2,.71,3,3,0,0,1-.56,3.36,5,5,0,0,1-2.82,1.2c-1,.2-2.3.25-2.8-.89a2.63,2.63,0,0,1,.47-2.57,4.8,4.8,0,0,1,2-1.25Z" style="fill:#fafafa"></path><path d="M418.76,260.41a8.72,8.72,0,0,1,4.1,6.21c.14.83.12,1.87-.45,2.31A1.52,1.52,0,0,1,421,269l-5.89-1.77a8,8,0,0,1,2.65,1.78,4.12,4.12,0,0,1,1,3.4,2.83,2.83,0,0,1-2.73,2.32,5.23,5.23,0,0,1-3.24-1.64,5.42,5.42,0,0,1-2-3.81c0-1.59,1.57-3.07,2.53-2.05a19.82,19.82,0,0,1-6.31-3.64,6.77,6.77,0,0,1-1.83-2.16,3.79,3.79,0,0,1-.18-3c2-4.62,4.55,2.16,5.79,2.77C413.13,262.28,415.78,258.83,418.76,260.41Z" style="fill:#fafafa"></path><path d="M427.9,280.14a2.92,2.92,0,0,1-.52,2.58,1.12,1.12,0,0,1-1.88-.49,6.42,6.42,0,0,1,3.54,2.51c.82,1.4.61,3.85-.69,4.39a2.68,2.68,0,0,1-2.44-.69,44.55,44.55,0,0,1-6.08-5.07,3,3,0,0,1-2.29,3.8c-1.46.16-2.83-.84-4.08-1.81-1.54-1.18-3.3-3-2.9-5.21a2.88,2.88,0,0,1,3.81-2.22c1.5.57,2.63,2.1,3.68,3.57a3,3,0,0,1,1.79-4c1.41-.24,2.81.84,3.68,2.14-1.63-1.13-2-4.09.19-4.43C425.14,275,427.55,278.63,427.9,280.14Z" style="fill:#fafafa"></path><path d="M383,273.49c1.23-.58,2.78.43,3.11,2.05s-.62,3.46-1.92,3.71a3.53,3.53,0,0,1,2.49,1.65,2.85,2.85,0,0,1,.52,1.85,1.92,1.92,0,0,1-1.76,1.7,4.41,4.41,0,0,1-2.28-.81,3.64,3.64,0,0,1,2.25.82,2.19,2.19,0,0,1,.33,2.63,1.59,1.59,0,0,1-1.88.26,9.11,9.11,0,0,1-3.85-2.74,3.43,3.43,0,0,1-3.23,1.72,2.84,2.84,0,0,1-1.85-3.34,2.49,2.49,0,0,1,2-1.83,4.89,4.89,0,0,1,2.55.5,5.85,5.85,0,0,1-2.05-2.86c-.31-1.25.36-2.93,1.4-2.83s1.75,2.12,2.67,2.84C382.65,277.46,380.52,274.67,383,273.49Z" style="fill:#fafafa"></path><path d="M404,267.37c1.32,1.13,1.78,3.37,1.69,5.39-.1,2.23-.91,4.61-2.52,5.5-2.13,1.18-4.78-1.06-5.18-3.95a7.74,7.74,0,0,1,3.18-7.2A2.53,2.53,0,0,1,404,267.37Z" style="fill:#fafafa"></path><path d="M389.12,265l-.55.6a2.39,2.39,0,0,1,3.88-.39,4.17,4.17,0,0,1,0,4.92,2.38,2.38,0,0,1-3.88-.35,3.4,3.4,0,0,1-4.63-1.1c-1.08-1.65-.84-4.52.63-5.58s3.71.53,3.56,2.66l.63-.9Z" style="fill:#fafafa"></path><path d="M372.73,268.31a11,11,0,0,1,2.53,4.51c.39,1.8-.25,4.1-1.68,4.56s-2.76-1-3.57-2.58a6.73,6.73,0,0,1-.87-4.71c.42-1.59,2.22-2.53,3.13-1.31Z" style="fill:#fafafa"></path><path d="M396.35,257.43a2.16,2.16,0,0,1,3.34-1.16,4.28,4.28,0,0,1,1,4.38,3.9,3.9,0,0,1-3,2.76,3,3,0,0,1-3.15-3.42,3.1,3.1,0,0,1-3.09,1.47,7.27,7.27,0,0,1-3.2-1.52c-1.35-1-2.79-2.51-2.65-4.48a3.12,3.12,0,0,1,2.55-2.91,4.18,4.18,0,0,1,3.4,1.6c.75.8,1.36,1.79,2.17,2.5a2.27,2.27,0,0,0,2.75.49Z" style="fill:#fafafa"></path><path d="M391.89,303.25a30.09,30.09,0,0,1-4,26.87c5.94,0,11.26.4,17.19.4a64.55,64.55,0,0,1-1.8-28.25C400,302.27,395.19,303.25,391.89,303.25Z" style="fill:#e0e0e0"></path><polygon points="370.8 382.9 422.19 382.9 427.22 331.11 365.77 331.11 370.8 382.9" style="fill:#ebebeb"></polygon><polygon points="361.79 333.78 431.7 333.78 432.96 326.89 360.53 326.89 361.79 333.78" style="fill:#f5f5f5"></polygon><rect x="310.56" y="96.33" width="92.41" height="110.77" transform="translate(713.52 303.43) rotate(180)" style="fill:#f0f0f0"></rect><path d="M403,134.21c-8.92,4.48-30,14.39-41.72,14.39,0,0,2.3,17.21-1.5,58.5H328.53c-.84-6.88-3.46-28.66-4-40-.68-13.61-7.82-26.36-4.42-37.84s11.23-10.8,25.85-18.29c7.94-4.06,18.77-10,27-14.62h30Z" style="fill:#e0e0e0"></path><path d="M334.66,138.91a9.24,9.24,0,0,0,2.68-6.67,3.23,3.23,0,0,0-4.25-2.83c-2.42.81-5.07,2.85-4.07,7.94A3.29,3.29,0,0,0,334.66,138.91Z" style="fill:#fff"></path><path d="M338.89,150s6.93-4.08,4.89-8.17-7.48,4.09-12,4.09,5.59,61.22,5.59,61.22h6.81S338.08,169.1,338.89,150Z" style="fill:#fff"></path><path d="M347.41,207.1h5.21s-3.9-37.8-2.6-50.34c.25-2.45,1.13-8.1-4-8.16s-.46,10.88-.46,10.88Z" style="fill:#fff"></path><path d="M351.72,123.88,403,97.36v12.28l-45.35,25.58c-7.24,18.17-14.06,0-14.06,0C329.49,122.52,351.72,123.88,351.72,123.88Z" style="fill:#fff"></path><rect x="65.59" y="242.13" width="21.32" height="140.77" transform="translate(152.51 625.02) rotate(180)" style="fill:#e6e6e6"></rect><rect x="81.09" y="242.13" width="231" height="140.77" transform="translate(393.19 625.02) rotate(180)" style="fill:#f5f5f5"></rect><polygon points="81.09 271.44 312.09 271.44 312.09 273.82 255.34 273.82 255.34 382.9 253.34 382.9 253.34 273.82 198.14 273.82 198.14 382.9 196.14 382.9 196.14 273.82 140.94 273.82 140.94 382.9 138.94 382.9 138.94 273.82 81.09 273.82 81.09 271.44" style="fill:#e0e0e0"></polygon><path d="M261.09,334h0a2.21,2.21,0,0,0,2-2.38V320.91a2.22,2.22,0,0,0-2-2.39h0a2.22,2.22,0,0,0-2,2.39v10.73A2.22,2.22,0,0,0,261.09,334Z" style="fill:#e6e6e6"></path><path d="M247.59,334h0a2.21,2.21,0,0,0,2-2.38V320.91a2.22,2.22,0,0,0-2-2.39h0a2.22,2.22,0,0,0-2,2.39v10.73A2.22,2.22,0,0,0,247.59,334Z" style="fill:#e6e6e6"></path><path d="M146.69,334h0a2.22,2.22,0,0,0,2-2.38V320.91a2.22,2.22,0,0,0-2-2.39h0a2.22,2.22,0,0,0-2,2.39v10.73A2.21,2.21,0,0,0,146.69,334Z" style="fill:#e6e6e6"></path><path d="M133.19,334h0a2.22,2.22,0,0,0,2-2.38V320.91a2.22,2.22,0,0,0-2-2.39h0a2.22,2.22,0,0,0-2,2.39v10.73A2.21,2.21,0,0,0,133.19,334Z" style="fill:#e6e6e6"></path><rect x="60.59" y="239.04" width="26.5" height="6.17" transform="translate(147.69 484.25) rotate(180)" style="fill:#e0e0e0"></rect><rect x="79.09" y="239.04" width="238" height="6.17" transform="translate(396.19 484.25) rotate(180)" style="fill:#ebebeb"></rect><polygon points="109.23 202.94 86.73 202.94 104.83 100.29 127.33 100.29 109.23 202.94" style="fill:#fafafa"></polygon><polygon points="122.32 202.94 116.26 202.94 134.36 100.29 140.42 100.29 122.32 202.94" style="fill:#fafafa"></polygon><polygon points="188.13 204.72 181.9 204.72 200.5 99.23 206.73 99.23 188.13 204.72" style="fill:#fafafa"></polygon><polygon points="175.71 204.72 163.96 204.72 182.56 99.23 194.31 99.23 175.71 204.72" style="fill:#fafafa"></polygon><path d="M144.26,204.74H70.77V98.7h73.49Zm-67.68-5.82h61.86V104.51H76.58Z" style="fill:#e6e6e6"></path><path d="M220.65,207.64H67.86V95.79H220.65Zm-147-5.81H214.84V101.6H73.67Z" style="fill:#f5f5f5"></path></g><g id="freepik--Shadow--inject-209"><ellipse id="freepik--path--inject-209" cx="250" cy="413.16" rx="210.79" ry="16.09" style="fill:#f5f5f5"></ellipse></g><g id="freepik--character-1--inject-209"><path d="M74.38,247.54H106.8v12.83H74.38a6.42,6.42,0,1,1,0-12.83Z" style="fill:#407BFF"></path><path d="M74.38,247.54H106.8v12.83H74.38a6.42,6.42,0,1,1,0-12.83Z" style="opacity:0.4"></path><path d="M99.68,260.37h25.67a6.41,6.41,0,0,0,6.42-6.41h0a6.41,6.41,0,0,0-6.42-6.42H99.68A6.41,6.41,0,0,0,93.26,254h0A6.41,6.41,0,0,0,99.68,260.37Z" style="fill:#407BFF"></path><path d="M99.68,260.37h25.67a6.41,6.41,0,0,0,6.42-6.41h0a6.41,6.41,0,0,0-6.42-6.42H99.68A6.41,6.41,0,0,0,93.26,254h0A6.41,6.41,0,0,0,99.68,260.37Z" style="opacity:0.30000000000000004"></path><path d="M69.74,260.37h98.18v20H69.74a10,10,0,0,1,0-20Z" style="fill:#407BFF"></path><path d="M69.74,260.37h98.18v20H69.74a10,10,0,0,1,0-20Z" style="opacity:0.5"></path><path d="M140.92,280.35H332.5a10,10,0,0,0,10-10h0a10,10,0,0,0-10-10H140.92a10,10,0,0,0-10,10h0A10,10,0,0,0,140.92,280.35Z" style="fill:#407BFF"></path><path d="M140.92,280.35H332.5a10,10,0,0,0,10-10h0a10,10,0,0,0-10-10H140.92a10,10,0,0,0-10,10h0A10,10,0,0,0,140.92,280.35Z" style="opacity:0.30000000000000004"></path><rect x="74.15" y="290.34" width="9.58" height="101.7" transform="translate(157.88 682.37) rotate(180)" style="fill:#263238"></rect><rect x="74.15" y="290.34" width="9.58" height="101.7" transform="translate(157.88 682.37) rotate(180)" style="fill:#fff;opacity:0.30000000000000004"></rect><circle cx="78.94" cy="399.26" r="9.65" transform="translate(-259.2 172.76) rotate(-45)" style="fill:#407BFF"></circle><rect x="247.8" y="290.34" width="9.58" height="101.7" transform="translate(505.18 682.37) rotate(180)" style="fill:#263238"></rect><rect x="247.8" y="290.34" width="9.58" height="101.7" transform="translate(505.18 682.37) rotate(180)" style="fill:#fff;opacity:0.30000000000000004"></rect><circle cx="252.59" cy="399.26" r="9.65" transform="translate(-84.97 68.71) rotate(-13.28)" style="fill:#407BFF"></circle><rect x="130.16" y="280.35" width="212.32" height="9.99" transform="translate(472.65 570.69) rotate(180)" style="fill:#263238"></rect><rect x="130.16" y="280.35" width="212.32" height="9.99" transform="translate(472.65 570.69) rotate(180)" style="fill:#fff;opacity:0.4"></rect><rect x="59.76" y="280.35" width="74.12" height="9.99" transform="translate(193.63 570.69) rotate(180)" style="fill:#263238"></rect><rect x="59.76" y="280.35" width="74.12" height="9.99" transform="translate(193.63 570.69) rotate(180)" style="fill:#fff;opacity:0.30000000000000004"></rect><rect x="150.63" y="367" width="172.67" height="7.58" transform="translate(473.93 741.59) rotate(180)" style="fill:#263238"></rect><rect x="150.63" y="367" width="172.67" height="7.58" transform="translate(473.93 741.59) rotate(180)" style="fill:#fff;opacity:0.4"></rect><rect x="78.94" y="367" width="71.69" height="7.58" transform="translate(229.57 741.59) rotate(180)" style="fill:#263238"></rect><rect x="78.94" y="367" width="71.69" height="7.58" transform="translate(229.57 741.59) rotate(180)" style="fill:#fff;opacity:0.30000000000000004"></rect><rect x="318.51" y="290.34" width="9.58" height="101.7" transform="translate(646.6 682.37) rotate(180)" style="fill:#263238"></rect><rect x="318.51" y="290.34" width="9.58" height="101.7" transform="translate(646.6 682.37) rotate(180)" style="fill:#fff;opacity:0.5"></rect><circle cx="323.3" cy="399.26" r="9.65" transform="translate(-59.78 56.94) rotate(-9.22)" style="fill:#407BFF"></circle><rect x="144.86" y="290.34" width="9.58" height="101.7" transform="translate(299.31 682.37) rotate(180)" style="fill:#263238"></rect><rect x="144.86" y="290.34" width="9.58" height="101.7" transform="translate(299.31 682.37) rotate(180)" style="fill:#fff;opacity:0.5"></rect><circle cx="149.65" cy="399.26" r="9.65" transform="translate(-87.73 45.06) rotate(-13.28)" style="fill:#407BFF"></circle><path d="M309.17,330.15c1.69.24,1.34,4.31-2.64,4.61s-13,.69-15.91.92c-4.78.37-6.71,1.47-8.77.68a3.67,3.67,0,0,1-1.53-1.61,19.32,19.32,0,0,1-.6-7.38,4.7,4.7,0,0,0-.07-2.3c-6-16-22.42-49.22-23.59-65.48l-10.59.39,1-17.68,5.82-3.87s7.47,1.55,9.67,1.94a13.09,13.09,0,0,1,9.47,8.35c4.09,10.78,13,57.32,19,73.18C292.32,326.89,301.6,329.09,309.17,330.15Z" style="fill:#ff8b7b"></path><path d="M254.23,238.41c-8.54,4.17-6.61,16.41-5.55,21a1.56,1.56,0,0,1-1.39,1.89c-8.59.69-44.64,3-51.69-6.45-8-10.74-5.7-28.75-5.7-28.75l22.92,1.62s-.09,1.52,14.23,3.28a184.28,184.28,0,0,1,27.08,5.87A.84.84,0,0,1,254.23,238.41Z" style="fill:#407BFF"></path><path d="M254.23,238.41c-8.54,4.17-6.61,16.41-5.55,21a1.56,1.56,0,0,1-1.39,1.89c-8.59.69-44.64,3-51.69-6.45-8-10.74-5.7-28.75-5.7-28.75l22.92,1.62s-.09,1.52,14.23,3.28a184.28,184.28,0,0,1,27.08,5.87A.84.84,0,0,1,254.23,238.41Z" style="fill:#fff;opacity:0.5"></path><path d="M244.52,261.46c-3.1-3.37-.56-21.08-12.55-22.07-13.05-1.07-36.89-6.79-36.89-6.79l-3.38,2.79-1.82,2.5c.55,5.55,2.05,12,5.72,16.92C202.05,263.44,232.76,262.25,244.52,261.46Z" style="opacity:0.2"></path><path d="M256.87,268.71h0a1.42,1.42,0,0,1,.33-2.11c2.38-1.49,8-4.3,17-4.88a1.43,1.43,0,0,1,1.53,1.37h0a1.42,1.42,0,0,1-1.32,1.47c-8.47.54-13.65,3.17-15.71,4.45A1.43,1.43,0,0,1,256.87,268.71Z" style="fill:#263238"></path><path d="M259.71,277.73h0a1.43,1.43,0,0,1,.38-2.13c2.34-1.42,7.74-4,16.62-4.55a1.44,1.44,0,0,1,1.53,1.37h0a1.43,1.43,0,0,1-1.33,1.47c-8.33.52-13.34,3-15.35,4.15A1.42,1.42,0,0,1,259.71,277.73Z" style="fill:#263238"></path><path d="M246,262.3a1.43,1.43,0,0,1-1.89-.86c-3.11-8.79-1.56-15.65.37-19.93A24.17,24.17,0,0,1,248.8,235a1.43,1.43,0,0,1,2.14.07l-.08-.09.07.08a1.42,1.42,0,0,1-.06,1.9c-2.46,2.6-8.62,10.77-4,23.59a1.42,1.42,0,0,1-.82,1.78Z" style="fill:#263238"></path><path d="M236,262.39c-5-14.28,2-25.5,4.7-29.1a1.43,1.43,0,0,1,2.11-.18l-.07-.06.05,0a1.41,1.41,0,0,1,.17,1.91,27.86,27.86,0,0,0-4.26,26.47,1.41,1.41,0,0,1-.82,1.77h0A1.42,1.42,0,0,1,236,262.39Z" style="fill:#263238"></path><path d="M266.37,275l-5.93-22.78a1.64,1.64,0,0,0-1.29-1.19l-22.95-4.17.51-2.81,23,4.17a4.51,4.51,0,0,1,3.54,3.28l5.94,22.78Z" style="fill:#263238"></path><path d="M264.3,250.3a3.49,3.49,0,1,1-3.49-3.49A3.49,3.49,0,0,1,264.3,250.3Z" style="fill:#263238"></path><circle cx="260.81" cy="250.3" r="1.94" style="fill:#407BFF"></circle><path d="M237.66,330.87c.77,4.84,8.65,7.54,15.9,10,1.62.54.53,4.47-3.43,4.05s-12.88-1.69-15.81-2c-4.77-.51-6.87.22-8.75-.93a3.76,3.76,0,0,1-1.21-1.86c-.32-1.76,1-5.16,1.69-7.2a5.87,5.87,0,0,0,.35-2.27c-1.23-17.07-6.86-53.66-6-69.14l-7.74-.56V244.21l6.78-4.82s6.54,1.67,8.71,1.93c2.66.32,6.38.83,8.52,6.45C240.75,258.55,234.62,311.63,237.66,330.87Z" style="fill:#ff8b7b"></path><path d="M168.78,226.06s-2.31,18,5.7,28.75c7,9.32,33.44,9.1,40.24,8.89a1.54,1.54,0,0,0,1.49-1.62c-.21-4.76-.07-19,9-21.38a.39.39,0,0,0,0-.77c-7.66-1.25-28-5.15-33.48-12.25Z" style="fill:#407BFF"></path><path d="M168.78,226.06s-2.31,18,5.7,28.75c7,9.32,33.44,9.1,40.24,8.89a1.54,1.54,0,0,0,1.49-1.62c-.21-4.76-.07-19,9-21.38a.39.39,0,0,0,0-.77c-7.66-1.25-28-5.15-33.48-12.25Z" style="fill:#fff;opacity:0.5"></path><path d="M222.71,171.16c.38,5.05.82,10.26,1.36,15.31.28,2.53.59,5.05,1,7.49.2,1.22.43,2.43.68,3.58a28,28,0,0,0,.85,3.16c.17.47.43,1.06.64,1.58L228,204c.53,1.14,1.07,2.29,1.64,3.45,1.14,2.3,2.28,4.64,3.47,7,2.36,4.65,4.72,9.35,7,14.08h0a2.61,2.61,0,0,1-4.39,2.76c-3.31-4.17-6.43-8.43-9.42-12.83-1.49-2.21-3-4.43-4.37-6.72-.71-1.15-1.4-2.32-2.09-3.5s-1.33-2.42-2-3.85a44.67,44.67,0,0,1-2.6-8.45c-.61-2.72-1.07-5.4-1.46-8.08-.77-5.37-1.27-10.64-1.52-16.08a5.24,5.24,0,0,1,10.46-.63Z" style="fill:#ff8b7b"></path><path d="M215,153.83c7.36,5.35,10.17,21.21,10.17,21.21l-16.42,7.57s-3.14-4-4.64-12.47C203.66,167.57,207.53,148.4,215,153.83Z" style="fill:#407BFF"></path><g style="opacity:0.5"><path d="M215,153.83c7.36,5.35,10.17,21.21,10.17,21.21l-16.42,7.57s-3.14-4-4.64-12.47C203.66,167.57,207.53,148.4,215,153.83Z"></path></g><path d="M210.51,151.82A92.71,92.71,0,0,0,184,150.44a11.28,11.28,0,0,0-10.16,8.67c-2.62,11.14-7.09,33.15-5.55,68.24,4,1.69,22,2.67,31.73,2.83,1.06,0,3.86-2.24,3.86-2.24s2.15,2.23,3.51,2.18c6.5-.2,6-.87,7.31-2,3.19-6.07,6.23-21.91.5-36.82.67-8.57,3.2-18.06,4.14-27.24A11.27,11.27,0,0,0,210.51,151.82Z" style="fill:#407BFF"></path><path d="M196,136.12c-.79,5.87-2,12.68-6.13,16a12.43,12.43,0,0,0,11.15,8c6.28.32,5.31-4.7,4.27-7.35-2.67-3-1.38-6.33-.71-8.7Z" style="fill:#ff8b7b"></path><path d="M197.71,139c0-.38.1-.75.16-1.12l6.68,6.21a14.22,14.22,0,0,0-.89,5C200.35,146.88,197.31,142.55,197.71,139Z" style="opacity:0.2"></path><path d="M193.77,127.58c1,7.77,1.18,12.36,5.38,16.07,6.32,5.58,15.72,1.3,17.08-6.63,1.21-7.13-.61-18.63-8.45-21.16A10.78,10.78,0,0,0,193.77,127.58Z" style="fill:#ff8b7b"></path><path d="M206.21,129.14c0,.64.41,1.13.82,1.1s.72-.57.68-1.21-.41-1.12-.83-1.09S206.17,128.51,206.21,129.14Z" style="fill:#263238"></path><path d="M214.15,128.8c0,.63.41,1.12.82,1.09s.72-.57.68-1.2-.41-1.13-.83-1.1S214.1,128.16,214.15,128.8Z" style="fill:#263238"></path><path d="M211.84,129.61a22.59,22.59,0,0,0,3.7,5,3.66,3.66,0,0,1-2.94,1Z" style="fill:#ff5652"></path><path d="M204.77,124.92a.55.55,0,0,1-.18-.06.38.38,0,0,1-.11-.52,3.76,3.76,0,0,1,2.94-1.77.37.37,0,0,1,.37.38.38.38,0,0,1-.37.37h0a3,3,0,0,0-2.31,1.43A.42.42,0,0,1,204.77,124.92Z" style="fill:#263238"></path><path d="M216.56,125.56a.36.36,0,0,1-.34-.1,2.9,2.9,0,0,0-2.52-.94.37.37,0,0,1-.43-.3.38.38,0,0,1,.29-.44,3.69,3.69,0,0,1,3.2,1.15.37.37,0,0,1,0,.53A.3.3,0,0,1,216.56,125.56Z" style="fill:#263238"></path><path d="M174.33,157.76c-.59.76-1.07,1.41-1.58,2.11s-1,1.4-1.47,2.1q-1.44,2.1-2.8,4.26c-1.79,2.88-3.48,5.85-5,8.94a73.8,73.8,0,0,0-4.05,9.68,48.52,48.52,0,0,0-1.45,5.27c-.19.91-.35,1.84-.49,2.78l-.16,1.44c0,.09,0,.36,0,.53s0,.41,0,.6c0,.37,0,.77.06,1.12a15.36,15.36,0,0,0,2.48,6.64,32.51,32.51,0,0,0,3.5,4.52,67.4,67.4,0,0,0,7.73,7,116.66,116.66,0,0,0,16.88,10.93A2.83,2.83,0,0,0,191,221L191,221c-2.44-2-4.95-4-7.33-6.16s-4.76-4.24-7-6.43a66.53,66.53,0,0,1-6.1-6.75,23.31,23.31,0,0,1-2.22-3.39,5.85,5.85,0,0,1-.81-2.48c0-.05,0-.06,0-.09s0,0,0,0l0-.08.18-1c.15-.66.3-1.32.5-2,.39-1.35.85-2.71,1.39-4.08a77.56,77.56,0,0,1,3.87-8.17q2.21-4,4.73-8,1.24-2,2.56-3.92l1.32-1.92c.43-.62.91-1.3,1.3-1.83l.05-.07a5.7,5.7,0,0,0-9.11-6.85Z" style="fill:#ff8b7b"></path><path d="M181.22,151c-8.91,1.83-16.32,17.19-16.32,17.19L175,183.3a42.23,42.23,0,0,0,10.61-12.6C186.81,168.39,190.27,149.15,181.22,151Z" style="fill:#407BFF"></path><g style="opacity:0.5"><path d="M181.22,151c-8.91,1.83-16.32,17.19-16.32,17.19L175,183.3a42.23,42.23,0,0,0,10.61-12.6C186.81,168.39,190.27,149.15,181.22,151Z"></path></g><path d="M189.12,220.16l7.68,2.18-5.1,8.11s-6.72-2.82-5.79-6.63Z" style="fill:#ff8b7b"></path><path d="M200.9,229.56l-2.27,2.54a2.78,2.78,0,0,1-3.55.5l-3.38-2.15,0-5.87,5.07-2.24,3.83,3.27A2.77,2.77,0,0,1,200.9,229.56Z" style="fill:#ff8b7b"></path><path d="M192,149.22c-.19,1.81,2,8.19,9.51,10.92-2.91,0-4.18,3.72-4.18,3.72s-10-5.33-8.81-11.77A3.56,3.56,0,0,1,192,149.22Z" style="fill:#407BFF"></path><path d="M203.89,149.72c-.19,1.76,1.86,5.46-2.34,10.42,2.91,0,4.66,2.92,4.66,2.92a12.44,12.44,0,0,0,.82-11.89A5.75,5.75,0,0,0,203.89,149.72Z" style="fill:#407BFF"></path><g style="opacity:0.5"><path d="M192,149.22c-.19,1.81,2,8.19,9.51,10.92-2.91,0-4.18,3.72-4.18,3.72s-10-5.33-8.81-11.77A3.56,3.56,0,0,1,192,149.22Z"></path><path d="M203.89,149.72c-.19,1.76,1.86,5.46-2.34,10.42,2.91,0,4.66,2.92,4.66,2.92a12.44,12.44,0,0,0,.82-11.89A5.75,5.75,0,0,0,203.89,149.72Z"></path></g><path d="M208,139a4.24,4.24,0,0,0-.69.48.17.17,0,0,0,0,.23h0a.18.18,0,0,0,.24,0,4.48,4.48,0,0,1,3.95-.93.18.18,0,0,0,.22-.11.17.17,0,0,0-.11-.21A4.63,4.63,0,0,0,208,139Z" style="fill:#263238"></path><path d="M237.38,225.83l8-.56,2.24,6-4.3,3.41s-7.32-.38-7.75-4.31Z" style="fill:#ff8b7b"></path><path d="M251.75,230.71l-1.28,3.18a2.78,2.78,0,0,1-3.19,1.68l-3.93-.87,2.06-9.43,4.74,1.79A2.79,2.79,0,0,1,251.75,230.71Z" style="fill:#ff8b7b"></path><path d="M194.4,133.23s4.83.2,3.31-4.74c0,0,5.16-1.05,2.14-6.52,0,0,4.74,2.08,5.93-3.33,0,0,3.89,3.53,6.38.89,0,0,4,3.08,5.39.5.69-1.3,2.58-5.43-2.65-5.73,0,0-2.39-5.43-7.33-2.7a5.21,5.21,0,0,0-7.37-.25s-5.58-1.38-6.66,3.65c0,0-4.35.5-3,5.41,0,0-2.57.91-.72,4.73,0,0-2.51,2,1,5.07C190.85,130.21,189.43,133.48,194.4,133.23Z" style="fill:#263238"></path><path d="M191.64,135.68a7.33,7.33,0,0,0,4.64,3.24c2.56.54,3.69-1.79,2.85-4.11-.75-2.09-3-4.88-5.48-4.38A3.36,3.36,0,0,0,191.64,135.68Z" style="fill:#ff8b7b"></path></g><g id="freepik--Wheelchair--inject-209"><path d="M177.81,369.77a20.42,20.42,0,0,0-4.31-.55c-2.28,0-4.56,0-6.84,0H125.73c-2,0-4.52.34-6.46-.33-5.29-1.8-4.62-10.89-5.09-15.35q-2.91-27.89-5.84-55.78c-.47-4.5-.64-9.17-1.47-13.63a13.67,13.67,0,0,0-13.24-11c-3.77-.11-7.56,0-11.34,0h-4a1.56,1.56,0,0,0,0,3.11H89.39c5.33,0,10.68.2,13.49,5.69a16.46,16.46,0,0,1,1.33,6.06c.3,2.9.61,5.8.91,8.7q2.88,27.46,5.75,54.93c.45,4.26.7,8.59,1.36,12.82,1.37,8.86,10.21,7.9,16.86,7.9h40.25a38.45,38.45,0,0,1,7,.25,11.5,11.5,0,0,1,1.43.36Z" style="fill:#407BFF"></path><path d="M177.81,369.77a20.42,20.42,0,0,0-4.31-.55c-2.28,0-4.56,0-6.84,0H125.73c-2,0-4.52.34-6.46-.33-5.29-1.8-4.62-10.89-5.09-15.35q-2.91-27.89-5.84-55.78c-.47-4.5-.64-9.17-1.47-13.63a13.67,13.67,0,0,0-13.24-11c-3.77-.11-7.56,0-11.34,0h-4a1.56,1.56,0,0,0,0,3.11H89.39c5.33,0,10.68.2,13.49,5.69a16.46,16.46,0,0,1,1.33,6.06c.3,2.9.61,5.8.91,8.7q2.88,27.46,5.75,54.93c.45,4.26.7,8.59,1.36,12.82,1.37,8.86,10.21,7.9,16.86,7.9h40.25a38.45,38.45,0,0,1,7,.25,11.5,11.5,0,0,1,1.43.36Z" style="fill:#fff;opacity:0.6000000000000001"></path><path d="M76.47,276.9h15.3c2.86,0,2.86-4.44,0-4.44H76.47c-2.85,0-2.86,4.44,0,4.44Z" style="fill:#407BFF"></path><g style="opacity:0.4"><path d="M76.47,276.9h15.3c2.86,0,2.86-4.44,0-4.44H76.47c-2.85,0-2.86,4.44,0,4.44Z" style="fill:#fff"></path></g><path d="M171.15,415c-6.27,0-11.38-5.68-11.38-12.66s5.11-12.65,11.38-12.65,11.38,5.68,11.38,12.65S177.43,415,171.15,415Zm0-20c-3.33,0-6.05,3.29-6.05,7.33s2.72,7.33,6.05,7.33,6.06-3.28,6.06-7.33S174.49,395,171.15,395Z" style="fill:#263238"></path><path d="M108.84,316.48c19.12,0,38.25-.11,57.37,0,6.08,0,10.74,4.06,10.92,10.31.08,2.95,0,5.91,0,8.86v55.09c0,4.85.39,11.07-6.4,11.41-2,.1-2,3.21,0,3.11,6.23-.32,9.5-5.1,9.5-10.93V340.62c0-8.93,2.25-21.68-7.87-26.12-3.46-1.52-7.44-1.13-11.14-1.13H108.84a1.56,1.56,0,0,0,0,3.11Z" style="fill:#407BFF"></path><g style="opacity:0.6000000000000001"><path d="M108.84,316.48c19.12,0,38.25-.11,57.37,0,6.08,0,10.74,4.06,10.92,10.31.08,2.95,0,5.91,0,8.86v55.09c0,4.85.39,11.07-6.4,11.41-2,.1-2,3.21,0,3.11,6.23-.32,9.5-5.1,9.5-10.93V340.62c0-8.93,2.25-21.68-7.87-26.12-3.46-1.52-7.44-1.13-11.14-1.13H108.84a1.56,1.56,0,0,0,0,3.11Z" style="fill:#fff"></path></g><rect x="118.97" y="309.78" width="43.44" height="7.69" rx="3.7" style="fill:#407BFF"></rect><rect x="118.97" y="309.78" width="43.44" height="7.69" rx="3.7" style="opacity:0.4"></rect><path d="M114.56,415c-21.45,0-38.89-19.83-38.89-44.2s17.44-44.19,38.89-44.19,38.89,19.82,38.89,44.19S136,415,114.56,415Zm0-83.07C96.05,331.9,81,349.34,81,370.77s15.06,38.87,33.57,38.87,33.56-17.43,33.56-38.87S133.06,331.9,114.56,331.9Z" style="fill:#263238"></path><path d="M114.56,407.28c-17.65,0-32-16.38-32-36.51s14.35-36.51,32-36.51,32,16.38,32,36.51S132.2,407.28,114.56,407.28Zm0-70.65c-16.34,0-29.63,15.32-29.63,34.14s13.29,34.14,29.63,34.14,29.62-15.31,29.62-34.14S130.89,336.63,114.56,336.63Z" style="fill:#407BFF"></path><g style="opacity:0.7000000000000001"><path d="M114.56,407.28c-17.65,0-32-16.38-32-36.51s14.35-36.51,32-36.51,32,16.38,32,36.51S132.2,407.28,114.56,407.28Zm0-70.65c-16.34,0-29.63,15.32-29.63,34.14s13.29,34.14,29.63,34.14,29.62-15.31,29.62-34.14S130.89,336.63,114.56,336.63Z" style="fill:#fff"></path></g><rect x="70.31" y="343.04" width="110.68" height="7.69" rx="3.7" style="fill:#407BFF"></rect><rect x="70.31" y="343.04" width="110.68" height="7.69" rx="3.7" style="opacity:0.4"></rect><rect x="169.73" y="406.79" width="30.14" height="4.52" rx="2.17" transform="translate(-47.7 25.1) rotate(-6.88)" style="fill:#407BFF"></rect><g style="opacity:0.4"><rect x="169.73" y="406.79" width="30.14" height="4.52" rx="2.17" transform="translate(-47.7 25.1) rotate(-6.88)"></rect></g><path d="M39.62,276.23H50.68c5.32,0,10.68.2,13.49,5.69A16.46,16.46,0,0,1,65.5,288q.45,4.35.91,8.7,2.86,27.46,5.75,54.93c.44,4.26.7,8.59,1.35,12.82,1.38,8.86,10.22,7.9,16.87,7.9h40.25a38.51,38.51,0,0,1,7,.25c8.09,1.52,12.83,10.63,17.37,16.71l15.33,20.5,1,1.39c1.18,1.59,3.88,0,2.68-1.56-8.24-11-16.36-22.16-24.73-33.09a18.41,18.41,0,0,0-14.58-7.31c-2.27,0-4.55,0-6.83,0H87c-2,0-4.53.34-6.47-.33-5.29-1.8-4.62-10.89-5.08-15.35q-2.93-27.89-5.84-55.78c-.47-4.5-.64-9.17-1.47-13.63a13.68,13.68,0,0,0-13.25-11c-3.77-.11-7.56,0-11.33,0h-4a1.56,1.56,0,0,0,0,3.11Z" style="fill:#407BFF"></path><g style="opacity:0.6000000000000001"><path d="M39.62,276.23H50.68c5.32,0,10.68.2,13.49,5.69A16.46,16.46,0,0,1,65.5,288q.45,4.35.91,8.7,2.86,27.46,5.75,54.93c.44,4.26.7,8.59,1.35,12.82,1.38,8.86,10.22,7.9,16.87,7.9h40.25a38.51,38.51,0,0,1,7,.25c8.09,1.52,12.83,10.63,17.37,16.71l15.33,20.5,1,1.39c1.18,1.59,3.88,0,2.68-1.56-8.24-11-16.36-22.16-24.73-33.09a18.41,18.41,0,0,0-14.58-7.31c-2.27,0-4.55,0-6.83,0H87c-2,0-4.53.34-6.47-.33-5.29-1.8-4.62-10.89-5.08-15.35q-2.93-27.89-5.84-55.78c-.47-4.5-.64-9.17-1.47-13.63a13.68,13.68,0,0,0-13.25-11c-3.77-.11-7.56,0-11.33,0h-4a1.56,1.56,0,0,0,0,3.11Z" style="fill:#fff"></path></g><path d="M37.76,276.9h15.3c2.85,0,2.86-4.44,0-4.44H37.76c-2.86,0-2.86,4.44,0,4.44Z" style="fill:#407BFF"></path><g style="opacity:0.4"><path d="M37.76,276.9h15.3c2.85,0,2.86-4.44,0-4.44H37.76c-2.86,0-2.86,4.44,0,4.44Z" style="fill:#fff"></path></g><path d="M132.44,415c-6.28,0-11.38-5.68-11.38-12.66s5.1-12.65,11.38-12.65,11.38,5.68,11.38,12.65S138.71,415,132.44,415Zm0-20c-3.34,0-6,3.29-6,7.33s2.71,7.33,6,7.33,6.05-3.28,6.05-7.33S135.78,395,132.44,395Z" style="fill:#263238"></path><path d="M70.13,316.48c19.12,0,38.24-.11,57.37,0,6.08,0,10.74,4.06,10.91,10.31.09,2.95,0,5.91,0,8.86v55.09c0,4.85.39,11.07-6.39,11.41-2,.1-2,3.21,0,3.11,6.23-.32,9.5-5.1,9.5-10.93V340.62c0-8.93,2.25-21.68-7.87-26.12-3.47-1.52-7.45-1.13-11.14-1.13H70.13a1.56,1.56,0,0,0,0,3.11Z" style="fill:#407BFF"></path><g style="opacity:0.6000000000000001"><path d="M70.13,316.48c19.12,0,38.24-.11,57.37,0,6.08,0,10.74,4.06,10.91,10.31.09,2.95,0,5.91,0,8.86v55.09c0,4.85.39,11.07-6.39,11.41-2,.1-2,3.21,0,3.11,6.23-.32,9.5-5.1,9.5-10.93V340.62c0-8.93,2.25-21.68-7.87-26.12-3.47-1.52-7.45-1.13-11.14-1.13H70.13a1.56,1.56,0,0,0,0,3.11Z" style="fill:#fff"></path></g><rect x="80.26" y="309.78" width="43.44" height="7.69" rx="3.7" style="fill:#407BFF"></rect><rect x="80.26" y="309.78" width="43.44" height="7.69" rx="3.7" style="opacity:0.4"></rect><path d="M75.84,415C54.4,415,37,395.14,37,370.77s17.45-44.19,38.89-44.19,38.89,19.82,38.89,44.19S97.29,415,75.84,415Zm0-83.07c-18.5,0-33.56,17.44-33.56,38.87s15.06,38.87,33.56,38.87,33.57-17.43,33.57-38.87S94.35,331.9,75.84,331.9Z" style="fill:#263238"></path><path d="M75.84,407.28c-17.64,0-32-16.38-32-36.51s14.35-36.51,32-36.51,32,16.38,32,36.51S93.49,407.28,75.84,407.28Zm0-70.65c-16.33,0-29.63,15.32-29.63,34.14s13.3,34.14,29.63,34.14,29.63-15.31,29.63-34.14S92.18,336.63,75.84,336.63Z" style="fill:#407BFF"></path><g style="opacity:0.7000000000000001"><path d="M75.84,407.28c-17.64,0-32-16.38-32-36.51s14.35-36.51,32-36.51,32,16.38,32,36.51S93.49,407.28,75.84,407.28Zm0-70.65c-16.33,0-29.63,15.32-29.63,34.14s13.3,34.14,29.63,34.14,29.63-15.31,29.63-34.14S92.18,336.63,75.84,336.63Z" style="fill:#fff"></path></g></g><g id="freepik--character-2--inject-209"><path d="M343.94,175.07l-2.56,5.44a4.49,4.49,0,0,0,4.05-.12Z" style="fill:#a24e3f"></path><path d="M341.82,173.82c.08.65.48,1.14.9,1.09s.74-.64.65-1.27-.48-1.14-.9-1.09S341.75,173.17,341.82,173.82Z" style="fill:#1a2e35"></path><path d="M344.67,171.27a.32.32,0,0,1-.31-.08,2.71,2.71,0,0,0-2.35-.72.34.34,0,1,1-.17-.66,3.33,3.33,0,0,1,3,.87.35.35,0,0,1,0,.49h0A.32.32,0,0,1,344.67,171.27Z" style="fill:#1a2e35"></path><path d="M366.48,167.37c1.38,8.6,2.15,12.21-1.15,17.53-5.56,5.9-15.86,7.82-19.78-.2-3.54-7.21-5.2-20,2.34-25.32a11.9,11.9,0,0,1,18.59,8Z" style="fill:#b97964"></path><path d="M357,189.69l-.12-.41a1.59,1.59,0,0,0-2.14-1l-3.38,1.41A11.56,11.56,0,0,0,357,189.69Z" style="opacity:0.2"></path><polygon points="356.39 187.55 359.91 200.14 370.34 196.56 365.24 183.87 356.39 187.55" style="fill:#b97964"></polygon><path d="M373.84,196.27l-2.77-5.83a2.12,2.12,0,0,0-1.74-1.12c-2.36-.26-7.58-.38-15.86,3-1.9.78-3.69,2.66-3,3.35l3.19,3.15Z" style="fill:#407BFF"></path><path d="M372.09,192.58c-7.62-.77-15.4,1.59-21,3.71l2.57,2.55,20.17-2.57Z" style="opacity:0.1"></path><path d="M349.36,197.25a43.32,43.32,0,0,1,18-4.77c11-.63,9.43,4.7,9.43,4.7Z" style="fill:#407BFF"></path><path d="M349.36,197.25a43.32,43.32,0,0,1,18-4.77c11-.63,9.43,4.7,9.43,4.7Z" style="fill:#fff;opacity:0.30000000000000004"></path><polygon points="366.68 373.03 373.62 393.3 381.93 390.96 377.32 370.96 366.68 373.03" style="fill:#b97964"></polygon><polygon points="380.36 384.14 377.32 370.96 366.68 373.03 371.01 385.7 380.36 384.14" style="opacity:0.2"></polygon><path d="M370,395.09c-1.08.27-2.25.36-2.72,0a.78.78,0,0,1-.21-.9,1.08,1.08,0,0,1,.53-.64c1.35-.77,4.81.2,5,.25a.2.2,0,0,1,.15.19.21.21,0,0,1-.12.21A16,16,0,0,1,370,395.09Zm-1.81-1.34a1.37,1.37,0,0,0-.38.15.59.59,0,0,0-.33.39c-.09.29,0,.4.07.46.55.46,2.74-.08,4.31-.68A9.68,9.68,0,0,0,368.16,393.75Z" style="fill:#407BFF"></path><path d="M372.53,394.18a.11.11,0,0,1-.08,0c-1.16-.2-3.72-1.56-3.78-2.59,0-.24.07-.57.62-.77a1.59,1.59,0,0,1,1.23.06c1.34.64,2.16,2.92,2.2,3a.21.21,0,0,1-.05.21A.18.18,0,0,1,372.53,394.18Zm-3-3-.12,0c-.36.12-.35.27-.35.33.1.6,1.84,1.73,3.07,2.1a4.92,4.92,0,0,0-1.82-2.37,1.11,1.11,0,0,0-.78-.08Z" style="fill:#407BFF"></path><path d="M373.15,392.74l9.49-2.38a.78.78,0,0,1,.89.41l3.66,7.29a1.31,1.31,0,0,1-.57,1.76l-.26.1c-3.44.8-6.53,1.37-10.79,2.45-5,1.26-3.59,1.54-9.48,3.11-3.55.94-5.22-3-3.76-3.52,6.69-2.61,6.89-4.87,8.93-8A3.15,3.15,0,0,1,373.15,392.74Z" style="fill:#263238"></path><path d="M374.55,274.48s-29.89,8.54-34,21.19c-2.93,9,27.17,83.48,27.17,83.48l12.16-2.08C369.93,308.94,363.44,303,363.44,303s20.51-5.43,35.25-7.3,8.79-18.79,7.39-25.21c-.31-1.4-.72-5.69-.72-5.69l-31.79,4Z" style="fill:#263238"></path><g style="opacity:0.1"><path d="M374.55,274.48s-29.89,8.54-34,21.19c-2.93,9,27.17,83.48,27.17,83.48l12.16-2.08C369.93,308.94,363.44,303,363.44,303s20.51-5.43,35.25-7.3,8.79-18.79,7.39-25.21c-.31-1.4-.72-5.69-.72-5.69l-31.79,4Z"></path></g><polygon points="365.95 376.33 380.01 374.12 381.61 380.92 367.74 383.29 365.95 376.33" style="fill:#263238"></polygon><polygon points="365.95 376.33 380.01 374.12 381.61 380.92 367.74 383.29 365.95 376.33" style="fill:#fff;opacity:0.30000000000000004"></polygon><polygon points="336.14 380.85 345.57 400.25 353.46 398.15 346.64 377.2 336.14 380.85" style="fill:#b97964"></polygon><polygon points="351.19 391.18 346.64 377.2 336.14 380.85 342.27 393.46 351.19 391.18" style="opacity:0.2"></polygon><path d="M362.72,270.53a3.17,3.17,0,0,1-2,3.61c-11,4-53.26,22.61-57.63,33.57-3.57,9,33.95,78.74,33.95,78.74l12.92-3.79c-15.59-63.9-22.84-67.31-22.84-67.31S374,297,389.14,296s9.09-25.13,9.09-25.13l-.66-5.22-34.94,4.45Z" style="fill:#263238"></path><polygon points="334.94 384.35 350.27 380.06 352.28 386.39 337.6 390.75 334.94 384.35" style="fill:#263238"></polygon><polygon points="334.94 384.35 350.27 380.06 352.28 386.39 337.6 390.75 334.94 384.35" style="fill:#fff;opacity:0.30000000000000004"></polygon><path d="M340.7,401.46a3.89,3.89,0,0,1-2.77-.2.8.8,0,0,1-.15-.93,1.15,1.15,0,0,1,.57-.62c1.43-.69,4.89.53,5,.58a.22.22,0,0,1,.14.21.22.22,0,0,1-.14.2A15.94,15.94,0,0,1,340.7,401.46ZM339,400a1.7,1.7,0,0,0-.4.13.59.59,0,0,0-.36.38c-.11.29,0,.41,0,.47.52.51,2.79.11,4.43-.41A10.18,10.18,0,0,0,339,400Z" style="fill:#407BFF"></path><path d="M343.37,400.7a.12.12,0,0,1-.1,0c-1.16-.28-3.67-1.83-3.67-2.87,0-.25.11-.58.68-.75a1.64,1.64,0,0,1,1.26.15c1.31.73,2,3.11,2,3.22a.21.21,0,0,1-.06.21A.17.17,0,0,1,343.37,400.7Zm-2.87-3.23h-.12c-.38.1-.38.26-.38.32.05.62,1.75,1.88,3,2.34a5,5,0,0,0-1.7-2.54,1.11,1.11,0,0,0-.78-.13Z" style="fill:#407BFF"></path><path d="M344.09,399.27l9.81-1.8a.81.81,0,0,1,.88.48l3.24,7.66a1.33,1.33,0,0,1-.7,1.75.92.92,0,0,1-.27.08c-3.55.59-6.73,1-11.13,1.79-5.19.95-3.76,1.33-9.85,2.54-3.67.73-5.12-3.33-3.59-3.83,7-2.21,7.32-4.5,9.61-7.56A3.24,3.24,0,0,1,344.09,399.27Z" style="fill:#263238"></path><path d="M340.41,202.57a3.11,3.11,0,0,1,2.75-3.51s18.85-4.18,27.78-3.66c6.61.38,13,2.12,16.94,7.39,7.64,10.26,12.71,20,18,62.58l-43.15,5.38s-1.92-7.56-6.34-20.87C351.46,235.11,342.4,217.16,340.41,202.57Z" style="fill:#407BFF"></path><path d="M343.31,211.63c1.61,6,3.78,12.31,6,18.53,6.41-17.14-.75-24.09-.75-24.09Z" style="opacity:0.2"></path><path d="M363.56,239.37,342.5,245s-6.8-3.38-9.28-3.53c-1.25-.08-4,.26-4.86,1.2a6.53,6.53,0,0,0-.55,5.19c.46.92,2.62,1.69,3.57,2.09,1.39.58,5.83,1.59,5.83,1.59l6.05-1L366.93,249Z" style="fill:#b97964"></path><path d="M363.83,250.16a15.45,15.45,0,0,0,5.52-1.34c4.44-2.74,14.19-22.4,18.54-32.48,1.79-4.16,2-11.94-5.87-19.24a1.43,1.43,0,0,0-2.17.25c-2.55,3.86-6.28,11.42-17.08,38.75l-3,1Z" style="fill:#407BFF"></path><path d="M363.83,250.16a15.45,15.45,0,0,0,5.52-1.34c4.44-2.74,14.19-22.4,18.54-32.48,1.79-4.16,2-11.94-5.87-19.24a1.43,1.43,0,0,0-2.17.25c-2.55,3.86-6.28,11.42-17.08,38.75l-3,1Z" style="fill:#fff;opacity:0.6000000000000001"></path><path d="M357.84,237.34l3.78-1.43a40.43,40.43,0,0,0,5.49,14.45l-5.31.68A26.5,26.5,0,0,1,357.84,237.34Z" style="fill:#407BFF"></path><path d="M357.84,237.34l3.78-1.43a40.43,40.43,0,0,0,5.49,14.45l-5.31.68A26.5,26.5,0,0,1,357.84,237.34Z" style="fill:#fff;opacity:0.4"></path><path d="M429.41,400.94l-32.88-12.11L363.3,401a1.76,1.76,0,0,1-2.36-1.65h0a1.76,1.76,0,0,1,1-1.6l34.58-16.05,34.24,16.05a1.77,1.77,0,0,1,1,1.59h0A1.76,1.76,0,0,1,429.41,400.94Z" style="fill:#263238"></path><path d="M429.41,400.94l-32.88-12.11L363.3,401a1.76,1.76,0,0,1-2.36-1.65h0a1.76,1.76,0,0,1,1-1.6l34.58-16.05,34.24,16.05a1.77,1.77,0,0,1,1,1.59h0A1.76,1.76,0,0,1,429.41,400.94Z" style="fill:#fff;opacity:0.5"></path><polygon points="388.79 391.66 396.53 388.83 403.93 391.55 403.93 385.12 396.53 381.65 388.79 385.25 388.79 391.66" style="opacity:0.2"></polygon><path d="M396.36,401.22h0a2.92,2.92,0,0,1-2.91-2.64l-.93-9.75V300.94h7.67v87.89l-.93,9.75A2.92,2.92,0,0,1,396.36,401.22Z" style="fill:#263238"></path><path d="M396.36,401.22h0a2.92,2.92,0,0,1-2.91-2.64l-.93-9.75V300.94h7.67v87.89l-.93,9.75A2.92,2.92,0,0,1,396.36,401.22Z" style="fill:#fff;opacity:0.5"></path><rect x="392.52" y="300.94" width="7.67" height="9.42" style="opacity:0.2"></rect><path d="M445.33,304a109.74,109.74,0,0,0-24.39-3.36c-8.46-.21-40.16,0-47.69,0A110.1,110.1,0,0,0,346,304c-5.59,1.42-3.87,9.49,1.18,9.58.45,0,96.27,0,96.63,0C449.12,313.78,451,305.41,445.33,304Z" style="fill:#407BFF"></path><path d="M445.33,304a109.74,109.74,0,0,0-24.39-3.36c-8.46-.21-40.16,0-47.69,0A110.1,110.1,0,0,0,346,304c-5.59,1.42-3.87,9.49,1.18,9.58.45,0,96.27,0,96.63,0C449.12,313.78,451,305.41,445.33,304Z" style="opacity:0.5"></path><path d="M348.63,313.37a99.86,99.86,0,0,1,49.24,0c6.09,1.55,8.69-7.86,2.59-9.41A110.46,110.46,0,0,0,346,304c-6.08,1.55-3.5,11,2.6,9.41Z" style="fill:#407BFF"></path><g style="opacity:0.2"><path d="M348.63,313.37a99.86,99.86,0,0,1,49.24,0c6.09,1.55,8.69-7.86,2.59-9.41A110.46,110.46,0,0,0,346,304c-6.08,1.55-3.5,11,2.6,9.41Z"></path></g><circle cx="396.36" cy="406.84" r="3.83" style="fill:#407BFF"></circle><path d="M435.61,406.84a3.84,3.84,0,1,1-3.83-3.84A3.84,3.84,0,0,1,435.61,406.84Z" style="fill:#407BFF"></path><circle cx="360.77" cy="406.84" r="3.83" style="fill:#407BFF"></circle><path d="M399.89,320.27l9.76,18.24a147.45,147.45,0,0,1,25.74,5.2c-4.47-19.92-26.19-63.37-28.16-74.88s-6.77-57.26-20.68-68.85c-11.09-9.25-39.09-3.17-45.61-.62s3.71,24.51,10,39.88A286.27,286.27,0,0,1,361.61,272c-23.88,6.2,10.94,70.94,10.94,70.94,8.63-4.53,19.71-5.52,30.16-5Z" style="fill:#407BFF"></path><path d="M399.89,320.27l9.76,18.24a147.45,147.45,0,0,1,25.74,5.2c-4.47-19.92-26.19-63.37-28.16-74.88s-6.77-57.26-20.68-68.85c-11.09-9.25-39.09-3.17-45.61-.62s3.71,24.51,10,39.88A286.27,286.27,0,0,1,361.61,272c-23.88,6.2,10.94,70.94,10.94,70.94,8.63-4.53,19.71-5.52,30.16-5Z" style="fill:#fff;opacity:0.7000000000000001"></path><path d="M356.05,289.45l13.09.86s4.78,13.86-4.79,14.12C356.49,304.65,356.05,289.45,356.05,289.45Z" style="opacity:0.2"></path><path d="M292.74,220.13l-.74.77a.78.78,0,0,0-.05,1,5.82,5.82,0,0,0-2.48,1.56,5.73,5.73,0,0,0-1.52,2.69.78.78,0,0,0-1.11,0l-.74.76a.79.79,0,0,0,0,1.12l2.52,2.45a.8.8,0,0,0,1.12,0l.75-.77a.8.8,0,0,0,0-1.11,5.71,5.71,0,0,0,2.64-1.6,5.83,5.83,0,0,0,1.48-2.52.79.79,0,0,0,1-.08l.75-.77a.8.8,0,0,0,0-1.12l-2.52-2.44A.79.79,0,0,0,292.74,220.13Z" style="fill:#263238"></path><path d="M300.32,233.12l-7.17-7-1,1,7.16,6.95a2.1,2.1,0,0,1,.59,1l.2.83a2.05,2.05,0,0,0,.57,1l9.82,9.53a1,1,0,0,0,1.47,0l1.11-1.14a1,1,0,0,0,0-1.47l-9.82-9.53a2.11,2.11,0,0,0-1-.54l-.83-.17A2.1,2.1,0,0,1,300.32,233.12Z" style="fill:#263238"></path><path d="M300.32,233.12l-7.17-7-1,1,7.16,6.95a2.1,2.1,0,0,1,.59,1l.2.83a2.05,2.05,0,0,0,.57,1l9.82,9.53a1,1,0,0,0,1.47,0l1.11-1.14a1,1,0,0,0,0-1.47l-9.82-9.53a2.11,2.11,0,0,0-1-.54l-.83-.17A2.1,2.1,0,0,1,300.32,233.12Z" style="fill:#fff;opacity:0.4"></path><path d="M295.81,223.11l-.74.77A.81.81,0,0,1,294,224a5.73,5.73,0,0,1-1.48,2.52,5.66,5.66,0,0,1-2.64,1.6.79.79,0,0,1,0,1.11l-.74.77a.8.8,0,0,1-1.12,0l.58.57a.8.8,0,0,0,1.12,0l.75-.77a.8.8,0,0,0,0-1.11,5.71,5.71,0,0,0,2.64-1.6,5.83,5.83,0,0,0,1.48-2.52.79.79,0,0,0,1-.08l.75-.77a.8.8,0,0,0,0-1.12l-.59-.57A.79.79,0,0,1,295.81,223.11Z"></path><path d="M344.82,243.39l-21.55,2.43-8.21-5.38-7.07-.58a1.77,1.77,0,0,0-1.2,1.16l-.8,2.59c-.38,1.24,3.95,4.48,3.95,4.48a52.23,52.23,0,0,0,6.6,3.08c1.48.39,4.59.26,6.12.45,5.88.73,22.63,2.7,22.63,2.7Z" style="fill:#b97964"></path><path d="M345.86,254a15.27,15.27,0,0,0,4.4-3.59C353.1,246,353.44,224,353,213.07c-.15-4-2.55-9.92-10-13.48a4,4,0,0,0-5.71,3.5c-.27,5.53,0,15.68,1.57,38.62l-2.24,2.21Z" style="fill:#407BFF"></path><path d="M345.86,254a15.27,15.27,0,0,0,4.4-3.59C353.1,246,353.44,224,353,213.07c-.15-4-2.55-9.92-10-13.48a4,4,0,0,0-5.71,3.5c-.27,5.53,0,15.68,1.57,38.62l-2.24,2.21Z" style="fill:#fff;opacity:0.6000000000000001"></path><path d="M336.62,243.87l1.12-1.84a40.43,40.43,0,0,0,11.16,10.69l-4.5,2.89A51.34,51.34,0,0,1,336.62,243.87Z" style="fill:#407BFF"></path><path d="M336.62,243.87l1.12-1.84a40.43,40.43,0,0,0,11.16,10.69l-4.5,2.89A51.34,51.34,0,0,1,336.62,243.87Z" style="fill:#fff;opacity:0.30000000000000004"></path><path d="M351.05,175s-9.17-5.77-7.12-11.95c0,0-5-2.64.2-7s8.13-1,8.13-1,5.43-5.08,11.29-.68c4.74,3.56,3.65,7.86,3.65,7.86s4.47,2.07,5,8.95c.44,5.34-2.63,7.06-2.63,7.06s2.36,7.69-7,7.63S351.05,175,351.05,175Z" style="fill:#263238"></path><path d="M349.28,174.66A6.69,6.69,0,0,0,351,179.5c1.6,1.73,3.66.61,4.26-1.54.55-2,.36-5.17-1.75-6.12A3,3,0,0,0,349.28,174.66Z" style="fill:#b97964"></path></g></svg>
